# xmcd CD database file
#
# Track frame offsets:
#	150
#	17058
#	28789
#	40225
#
# Disc length: 690 seconds
#
# Revision: 3
# Processed by: cddbd v1.5.2PL0 Copyright (c) Steve Scherf et al.
# Submitted via: CDex 1.79
#
DISCID=2902b004
DTITLE=The Black Keys - The Moan
DYEAR=2004
DGENRE=Rock
TTITLE0=The Moan
TTITLE1=Heavy Soul (Alternate Version)
TTITLE2=No Fun
TTITLE3=Have Love Will Travel (Radio Edit)
EXTD=YEAR: 2004
EXTT0=
EXTT1=
EXTT2=
EXTT3=
PLAYORDER=
